<mxfile host="app.diagrams.net" modified="2020-09-21T09:38:35.835Z" agent="5.0 (X11; Linux x86_64) AppleWebKit/537.36 (KHTML, like Gecko) Chrome/85.0.4183.102 Safari/537.36" etag="0JOPg2kG29rvfhsu-5rm" version="13.7.3" type="github" pages="2">
  <diagram id="JdrDnDh08jYFlbANVYlC" name="BPMN">
    <mxGraphModel dx="868" dy="457" grid="1" gridSize="10" guides="1" tooltips="1" connect="1" arrows="1" fold="1" page="1" pageScale="1" pageWidth="827" pageHeight="1169" math="0" shadow="0">
      <root>
        <mxCell id="0" />
        <mxCell id="1" parent="0" />
      </root>
    </mxGraphModel>
  </diagram>
  <diagram id="SbmPCrWAScyMNBfmZwv6" name="ERD">
    <mxGraphModel dx="868" dy="457" grid="1" gridSize="10" guides="1" tooltips="1" connect="1" arrows="1" fold="1" page="1" pageScale="1" pageWidth="827" pageHeight="1169" math="0" shadow="0">
      <root>
        <mxCell id="JPpHahWXkAAXeMqm9HwT-0" />
        <mxCell id="JPpHahWXkAAXeMqm9HwT-1" parent="JPpHahWXkAAXeMqm9HwT-0" />
      </root>
    </mxGraphModel>
  </diagram>
</mxfile>
